<svg width="1967" height="1349" viewBox="0 0 1967 1349" fill="none" xmlns="http://www.w3.org/2000/svg">
<path d="M975.181 0.0457648C1259.36 -2.34664 1572.74 88.9988 1782.55 288.448C1875.74 377.034 1946.69 494.482 1949.84 625.931C1952.86 751.601 1894.26 863.632 1807.57 951.906C1656.49 1105.74 1433.19 1195.39 1224.24 1231.41C1148.33 1244.42 1071.5 1251.31 994.491 1252.03L991.631 1252.08C708.909 1256.9 383.848 1175.84 174.146 975.996C-33.6719 779.064 -33.2104 494.847 170.455 293.706C383.811 82.9938 683.053 3.79166 975.181 0.0457648ZM1035.99 1196.62C1298.52 1195.99 1613.05 1128.07 1806.24 936.496C1885.15 858.259 1939.48 755.012 1938.81 642.166C1938.17 532.508 1886.14 434.292 1808.76 358.824C1613.68 168.576 1283.37 108.722 1021.36 110.866C1018.09 110.876 1014.81 110.923 1011.54 111.006C945.081 111.72 878.722 116.606 812.87 125.636C606.478 154.177 371.083 230.636 222.059 383.641C151.809 455.768 104.365 548.18 106.235 650.516C108.23 759.648 167.258 859.376 245.071 932.846C448.196 1124.63 764.828 1197.98 1035.99 1196.62Z" fill="black"/>
<path d="M539.648 272.695C565.738 270.965 548.485 293.913 542.794 306.167C509.971 376.834 499.715 462.864 522.704 538C529.94 561.649 546.922 592.237 574.254 595.354C580.314 595.983 587.849 593.241 594.229 596.451C595.583 599.192 595.39 597.748 594.466 600.958C588.386 607.879 569.837 612.425 560.368 614.35C470.916 632.537 458.119 556.495 445.228 492.064C427.918 495.318 388.414 500.627 373.863 504.765C358.304 509.189 327.549 572.49 319.779 588.046C307.686 612.784 293.686 643.629 266.764 654.333C252.467 660.017 185.724 672.819 174.612 668.015L174.041 666.518C175.745 663.327 188.363 654.915 193.023 649.877C199.314 643.077 206.779 635.431 211.597 627.389C230.816 595.318 241.275 560.694 258.66 526.865C299.003 446.823 356.432 384.666 428.545 331.848C469.977 301.503 491.904 288.167 539.648 272.695ZM395.569 474.106C404.463 472.504 436.944 469.97 441.677 463.78C443.326 461.624 444.174 458.822 444.651 456.18C446.272 447.201 445.949 437.607 446.667 428.507C447.117 422.811 448.693 417.315 448.339 411.57C446.675 410.154 447.598 410.4 445.722 410.267C434.913 417.05 395.579 459.785 392.768 471.726L393.421 473.33L395.569 474.106Z" fill="black"/>
<path d="M949.001 366.802C997.751 364.345 1000.63 441.346 1000.47 475.962C1000.41 488.145 993.401 511.446 997.091 522.386C1006.15 532.363 1022.21 512.599 1029.11 522.935C1031.05 536.857 1005.82 545.92 994.671 543.474C987.731 541.953 972.611 537.277 966.191 539.031C950.761 543.242 936.741 550.197 920.971 554.691C917.391 555.636 913.791 556.476 910.161 557.209C891.218 561.164 830.661 569.786 828.94 539.939C825.218 475.383 882.597 378.767 949.001 366.802ZM906.261 530.173C929.941 521.316 937.461 500.012 947.381 478.451C953.211 465.769 954.891 427.191 935.231 425.457C900.686 440.095 869.429 529.162 906.261 530.173Z" fill="black"/>
<path d="M1163.27 335.923C1178.69 333.482 1202 337.884 1215.62 344.64C1252.68 362.326 1262.27 402.273 1261.67 440.043C1261.5 450.908 1260.72 480.114 1271.52 485.279C1277.54 484.62 1282.52 473.555 1288.89 477.554C1295.98 482.677 1295.52 487.298 1291.76 494.018C1279.39 516.148 1240.32 520.334 1220.01 506.557C1215.44 503.491 1211.84 499.185 1209.63 494.143C1203.06 479.327 1200.41 421.354 1197.22 403.005C1195.45 394.251 1189.65 384.723 1181.56 380.354C1160.27 368.856 1137.19 368.473 1124.06 390.072C1118.61 404.14 1122.87 470.518 1122.02 488.931C1121.8 498.003 1123.07 508.485 1121.21 517.333C1116.45 539.959 1074.85 542.009 1066.7 521.212C1062.47 510.43 1064.81 496.835 1064.41 485.221C1063.5 459.198 1064.89 432.089 1061.09 406.379C1055.25 374.093 1001.57 373.309 995.631 363.634L996.871 361.702C1007.77 355.396 1048.75 350.47 1062.29 353.484C1068.83 354.176 1083.96 362.529 1089.98 360.397C1117.72 350.57 1132.28 339.134 1163.27 335.923Z" fill="black"/>
<path d="M980.371 321.743C986.981 321.117 989.751 321.24 992.421 327.435C990.831 336.938 982.201 336.908 972.561 339.477C926.951 351.625 897.054 365.205 859.605 394.832C814.257 431.06 767.714 474.946 742.351 527.976C733.79 545.877 722.552 617.664 693.925 581.206C682.742 566.965 673.002 549.778 662.624 534.655C644.267 507.901 623.487 484.064 600.675 461.046C581.611 441.912 561.218 424.15 539.649 407.892C602.105 392.227 625.95 422.151 663.42 466.22C666.578 469.597 684.598 493.878 689.92 488.857C726.573 454.278 767.567 407.612 812.218 383.876C860.479 358.221 926.521 333.07 980.371 321.743Z" fill="black"/>
<path d="M514.233 791.945C551.037 793.314 563.661 811.089 569.098 845.433H535.945C533.681 829.129 525.439 810.292 505.317 823.703C493.044 831.883 489.397 849.779 486.992 863.502C521.357 842.322 559.126 858.985 569.069 898.209C571.187 906.563 570.888 913.278 570.508 921.78C566.801 951.056 549.338 974.656 518.778 977.316C475.68 981.056 455.512 942.166 453.568 904.372C451.99 873.709 453.334 834.784 474.072 810.05C484.816 797.236 498.342 793.113 514.233 791.945ZM485.571 896.933C486.619 918.253 489.633 948.206 516.745 949.136C548.216 938.676 545.014 880.106 508.358 882.651C498.208 885.864 493.138 889.221 485.571 896.933Z" fill="black"/>
<path d="M1287.05 791.98C1348.33 790.238 1354.13 860.478 1348.81 908.8C1343.31 958.666 1308.02 996.796 1255.53 967.756C1242.3 960.436 1236.89 939.846 1234.69 924.956C1236.71 923.261 1263.1 924.016 1267.71 924.036C1268.5 930.406 1268.85 934.456 1272.02 940.206C1277.9 950.886 1287.6 953.216 1297.88 945.956C1310.73 936.876 1313.77 920.318 1316.45 905.746C1308.05 910.903 1301.02 914.192 1290.98 915.193C1277.75 916.491 1264.56 912.417 1254.36 903.887C1215.4 871.719 1229.52 797.088 1287.05 791.98ZM1297.81 885.978C1307.4 882.029 1310.27 879.704 1317.92 872.568C1317.06 850.736 1313.4 818.974 1284.76 820.646C1254.04 834.647 1260.83 893.452 1297.81 885.978Z" fill="black"/>
<path d="M1413.2 791.972C1474.78 790.299 1480.09 862.057 1474.57 909.76C1468.77 959.916 1432.68 996.656 1381.12 967.526C1367.96 960.086 1362.8 939.576 1360.55 924.956C1362.8 923.28 1388.78 924.006 1393.52 924.036C1394.33 929.856 1394.78 934.336 1397.59 939.646C1403.42 950.646 1413.27 953.496 1423.88 945.896C1436.68 936.736 1439.6 920.185 1442.47 905.651C1433.99 910.885 1427.06 914.168 1416.93 915.199C1403.49 916.528 1390.09 912.316 1379.82 903.536C1341.31 871.012 1355.7 796.903 1413.2 791.972ZM1423.73 885.957C1433.47 881.955 1436.31 879.671 1443.92 872.278C1442.62 849.86 1439.62 819.75 1410.76 820.632C1380.04 834.104 1386.59 893.739 1423.73 885.957Z" fill="black"/>
<path d="M1324.35 264.86C1328.57 264.619 1333 264.296 1337.14 265.324C1350.19 268.565 1344.8 281.308 1350.41 289.183C1355.48 296.304 1376.84 288.554 1385.36 290.101C1388.41 290.654 1391.36 292.036 1393.03 294.758C1394.84 297.697 1395.17 302.339 1394.16 305.597C1390.78 316.477 1369.26 315.075 1360.65 319.917C1358.55 321.098 1355.88 322.959 1355.37 325.481C1353.16 336.438 1371.18 433.694 1375.24 448.405C1376.23 452.001 1377.59 455.285 1379.83 458.298C1390.53 472.618 1404.05 460.19 1417.32 462.128C1432.42 471.467 1402.49 482.727 1396.52 484.848C1395.61 485.109 1394.69 485.354 1393.76 485.582C1378.62 489.311 1358.69 491.595 1344.73 482.949C1315.55 464.871 1311.97 374.183 1303.27 340.362C1302.53 337.47 1301.35 332.573 1299.23 330.438C1290.89 322.054 1269.75 331.191 1259.23 324.302C1257.12 322.921 1255.81 320.686 1255.45 318.205C1255.05 315.401 1256.15 312.696 1257.79 310.471C1263.64 302.546 1276.73 303.323 1285.55 301.636C1308.2 297.302 1293.37 284.282 1301.48 273.589C1306.34 267.179 1316.97 265.883 1324.35 264.86Z" fill="black"/>
<path d="M1623.68 794.77H1721.58V826.382H1651.92C1651.34 836.328 1650.55 846.262 1649.58 856.177C1656.25 853.462 1662.37 851.945 1669.6 851.495C1684.25 850.474 1698.69 855.464 1709.58 865.315C1741.54 893.951 1733.37 955.116 1693.27 972.306C1683.81 976.366 1677.05 977.116 1666.9 977.596C1628.57 976.146 1613.99 953.936 1609.58 918.843H1642.68C1644.62 933.926 1648.08 947.676 1666.42 948.736C1696.9 950.506 1704.62 905.944 1686.19 888.158C1681.19 883.239 1674.4 880.576 1667.39 880.785C1655.94 881.152 1648.15 887.366 1640.73 895.249H1615.62C1619.45 864.188 1620.58 826.743 1623.68 794.77Z" fill="black"/>
<path d="M339.854 794.77H437.71V826.382H368.031C367.489 836.33 366.737 846.266 365.776 856.183C372.274 853.538 377.968 852.058 385.028 851.539C399.759 850.313 414.349 855.18 425.395 865.004C461.619 897.141 446.659 967.086 397.326 976.156C392.326 977.076 387.929 977.366 382.855 977.596C344.777 975.166 329.8 954.766 325.868 918.843H358.988C360.661 934.256 364.46 947.716 382.904 948.766C412.953 950.846 420.757 905.294 402.364 888.184C386.929 873.826 369.316 881.909 356.904 895.249H331.814C335.698 864.904 336.876 826.424 339.854 794.77Z" fill="black"/>
<path d="M1494.37 794.77H1592.44V826.382H1522.88L1520.53 856.097C1526.77 853.521 1533.38 851.977 1540.12 851.526C1554.75 850.419 1569.21 855.321 1580.15 865.103C1616.16 897.206 1601.39 966.826 1552.3 976.096C1547.36 977.036 1543.01 977.346 1537.99 977.596C1499.54 976.366 1484.85 953.946 1480.4 918.843H1513.46C1515.54 933.896 1520.18 948.746 1538.08 949.146C1575.01 949.996 1578.38 878.596 1537.22 881.268C1525.17 882.05 1519.67 886.783 1511.61 895.249H1486.52C1489.68 862.441 1491.82 827.755 1494.37 794.77Z" fill="black"/>
<path d="M975.731 792.615H1000.97V903.77H1022.86V934.476H1000.97V974.546H968.671V934.476H899.512V907.797L975.731 792.615ZM936.311 903.771H968.671C968.701 892.212 969.501 862.259 968.431 852.353C964.421 858.501 936.081 900.791 936.311 903.771Z" fill="black"/>
<path d="M837.406 791.958C870.319 792.385 894.505 809.516 895.625 844.047C896.993 886.248 848.375 915.288 821.74 943.156H895.813V974.546H776.925C775.628 909.824 856.224 895.164 862.307 849.872C863.331 842.251 861.798 833.426 856.886 827.321C853.412 823.005 848.64 820.704 843.195 820.091C836.263 819.31 828.772 821.599 823.5 826.157C815.385 833.173 814.177 842.126 813.56 852.249H780.479C782.557 815.721 800.217 794.643 837.406 791.958Z" fill="black"/>
<path d="M1457.18 314.695C1465.79 313.788 1482.92 312.203 1490.36 316.848C1497.14 321.081 1505.16 389.458 1506.98 400.122C1509.05 412.184 1512.79 442.853 1523.64 449.724C1528.33 452.697 1534.7 449.36 1539.55 448.254C1542.79 447.517 1548.42 447.384 1551.22 449.368C1552.47 450.258 1552.24 450.811 1552.55 452.231C1550.01 458.822 1545.82 460.425 1539.8 463.757C1536.33 465.281 1532.4 466.988 1528.69 467.705C1453.31 482.32 1448.66 388.786 1443.9 337.51C1442.49 322.256 1442.41 319.724 1457.18 314.695Z" fill="black"/>
<path d="M1091.86 791.931H1118.35V974.546H1085.9V846.284C1070.75 850.725 1062.25 850.739 1046.9 850.881V822.54C1073.06 822.374 1086.2 819.457 1091.86 791.931Z" fill="black"/>
<path d="M638.754 791.931H665.251V974.546H632.854V846.274C617.693 850.723 609.211 850.735 593.854 850.883V822.541C619.721 822.363 633.184 819.605 638.754 791.931Z" fill="black"/>
<path d="M962.231 583.655C992.611 582.472 986.771 611.189 982.631 631.603C978.771 650.666 973.211 671.71 952.181 677.41C942.381 677.782 931.051 675.304 929.711 663.834C926.781 638.738 934.391 591.629 962.231 583.655ZM953.661 670.437C972.241 661.021 975.051 633.142 977.821 614.454C979.731 601.544 976.161 589.582 960.841 590.656C951.041 595.817 945.121 605.787 942.631 616.463C938.971 632.174 925.291 672.353 953.661 670.437Z" fill="black"/>
<path d="M1433.33 585.546C1440.42 585.564 1456.56 584.379 1462.08 586.707C1481.05 594.709 1474.54 622.004 1457.48 629.236L1456.47 629.659C1473.62 645.109 1455.59 655.754 1460.96 673.459L1461.28 674.5L1460.73 675.495C1456.88 675.522 1455.98 676.244 1453.55 674.219C1451.3 667.186 1454.69 652.731 1456.03 645.113C1455.04 630.694 1442.39 633.436 1431.23 633.539C1428.54 647.263 1425.65 660.948 1422.56 674.587C1420.4 676.311 1420.56 675.647 1416.8 675.367C1414.4 670.966 1420.26 650.064 1421.45 644.275L1433.33 585.546ZM1456.14 623.633C1462.4 617.81 1471.68 604.639 1462.94 596.941C1456.43 591.206 1447.71 592.416 1439.6 592.546L1432.71 626.546C1442.05 626.616 1447.57 627.513 1456.14 623.633Z" fill="black"/>
<path d="M856.654 585.546H869.546C870.123 610.332 872.562 639.082 873.89 664.196C886.193 640.519 899.708 610.075 911.331 585.546L923.711 585.541L912.351 641.629C910.431 651.073 907.641 666.839 904.511 675.494L902.661 676.225C899.49 675.013 900.58 676.017 898.877 673.637C897.94 669.64 911.501 608.649 913.371 600.128C913.691 597.98 913.561 598.165 913.341 595.98C901.507 619.055 889.008 650.714 876.14 674C875.351 675.428 870.745 675.23 868.65 675.347C867.164 673.545 863.529 603.124 862.905 592.974C860.679 603.26 847.849 671.185 844.837 675.305C841.157 675.967 842.522 676.26 839.551 674.601C837.749 670.123 854.485 596.128 856.654 585.546Z" fill="black"/>
<path d="M1154.96 891.659H1227.52V924.156H1154.96V891.659Z" fill="black"/>
<path d="M701.905 891.659H774.444V924.156H701.905V891.659Z" fill="black"/>
<path d="M1167.31 585.546C1171.14 585.419 1172.65 585.229 1176.4 586.21C1178.79 593.338 1181.08 606.161 1182.69 613.853L1192.97 663.183L1203.42 612.735C1205.19 603.841 1205.26 589.421 1213.46 584.314L1215.26 585.169C1216.54 589.269 1200.12 665.561 1198.09 675.546C1194.3 675.675 1192.81 675.854 1189.07 674.881C1186.85 668.564 1184.35 655.097 1182.83 647.898C1179.4 631.48 1175.86 615.084 1172.23 598.711C1169.92 608.466 1157.76 672.634 1155.5 675.051C1152.36 675.785 1152.14 675.97 1149.28 674.826C1149.45 668.322 1153.31 653.412 1154.83 646.027C1158.89 625.845 1163.05 605.685 1167.31 585.546Z" fill="black"/>
<path d="M1010.58 585.481C1013.25 585.571 1016.01 585.129 1017.61 586.569C1017.36 603.837 997.241 658.134 1007.43 668.432C1049.36 689.053 1039.54 589.278 1053.92 584.597C1056.21 585.618 1056.04 585.575 1057.68 587.504L1057.2 591.604C1051.24 615.406 1049.47 642.943 1039.28 664.736C1031 682.44 993.481 683.887 996.441 658.801C999.231 635.086 1005.77 608.862 1010.58 585.481Z" fill="black"/>
<path d="M1459.12 271.757C1463.43 271.29 1468.14 271.337 1472.45 271.156C1491.33 270.361 1508.18 287.732 1484.12 298.781C1480.99 300.222 1476.56 300.699 1472.98 301.254C1465.41 301.897 1451.89 303.677 1445.92 299.359C1425.01 284.234 1444.97 274.678 1459.12 271.757Z" fill="black"/>
<path d="M1334.03 583.778C1355.76 581.682 1366.76 603.736 1353.17 607.966C1349.4 604.891 1349.58 595.049 1345.24 592.366C1331.46 583.85 1316.23 601.937 1319.16 615.155C1320.99 623.424 1335.45 627.337 1341.91 631.406C1357.14 640.981 1351.98 653.139 1344.17 665.428C1338.62 673.87 1331.34 676.034 1321.61 677.825C1309.93 677.314 1299.01 671.802 1300.73 658.062C1301.23 654.031 1302.44 651.293 1305.76 648.901L1307.6 649.257C1309.8 654.162 1308 660.542 1309.84 664.389C1312.19 671.372 1326.58 672.491 1331.64 668.086C1366.23 637.942 1316.34 634.992 1312.1 619.888C1307.01 601.722 1319.8 588.801 1334.03 583.778Z" fill="black"/>
<path d="M1093.03 583.778C1114.76 581.682 1125.76 603.736 1112.17 607.966C1108.4 604.891 1108.58 595.049 1104.24 592.366C1090.46 583.85 1075.23 601.937 1078.16 615.155C1079.99 623.424 1094.45 627.337 1100.91 631.406C1116.14 640.981 1110.98 653.139 1103.17 665.428C1097.62 673.871 1090.34 676.034 1080.61 677.826L1079.33 677.728C1064.17 676.509 1058.07 668.736 1060.01 653.43C1062.37 649.912 1061.09 651.014 1064.78 649.143L1066.92 650.047C1070.54 657.824 1064.57 666.159 1074.61 669.62C1085.57 673.65 1097.95 665.997 1101.15 654.559C1108.96 626.592 1054.74 637.836 1073.34 599.679C1077.99 590.144 1083.7 587.069 1093.03 583.778Z" fill="black"/>
<path d="M1605.15 583.696C1629.03 581.944 1635.01 605.195 1623.93 612.589C1617.37 610.611 1622.44 596.73 1617.42 593.767C1588.31 576.463 1580.39 635.713 1579.88 653.408C1579.32 672.823 1595.39 676.237 1607.75 661.565C1610.58 656.578 1612.97 646.319 1616 644.858C1619.7 645.554 1618.78 644.811 1620.73 647.203C1621.73 656.104 1607.45 674.235 1599.49 676.332C1555.96 687.799 1575.02 622.124 1583.87 602.6C1588.17 593.113 1594.92 586.949 1605.15 583.696Z" fill="black"/>
<path d="M1865.15 583.696C1893.12 581.786 1892.95 610.115 1882.81 611.869C1877.75 608.244 1882.35 597.867 1877.91 594.303C1863.22 581.56 1849.33 601.399 1846.37 615.061C1843.47 628.464 1828.71 674.291 1855.92 670.271C1861.1 669.506 1864.55 665.362 1867.75 661.565C1870.58 656.578 1872.97 646.319 1876 644.858C1879.7 645.554 1878.78 644.811 1880.73 647.202C1881.73 656.104 1867.45 674.234 1859.49 676.332C1815.96 687.799 1835.02 622.124 1843.87 602.6C1848.17 593.113 1854.92 586.949 1865.15 583.696Z" fill="black"/>
<path d="M1235.31 585.546C1245.25 585.588 1265.16 584.476 1274.04 586.244C1274.68 588.295 1274.38 587.798 1273.23 590.349C1267.25 594.345 1249.44 592.647 1241.28 592.546C1239.4 603.032 1237 614.051 1234.89 624.546C1242.77 624.388 1256.59 623.369 1263.4 626.943L1261.51 626.407L1263.63 628.489C1257.85 632.826 1240.51 631.671 1233.22 631.546L1229.06 651.962L1225.81 668.546C1232.03 668.465 1252.93 667.486 1257.68 669.857C1257.45 672.456 1257.56 672.872 1256 675.039C1248.52 676.461 1225.24 675.642 1216.74 675.579L1235.31 585.546Z" fill="black"/>
<path d="M1379.31 585.546C1389.25 585.588 1409.16 584.476 1418.04 586.244C1418.68 588.295 1418.38 587.798 1417.23 590.349C1411.25 594.345 1393.44 592.647 1385.28 592.546C1383.4 603.033 1381 614.05 1378.89 624.546C1387.8 624.373 1398.99 623.422 1407.14 626.727L1406.55 626.726L1407.6 628.481C1401.85 632.827 1384.49 631.671 1377.22 631.546L1373.06 651.962L1369.81 668.546C1376.03 668.465 1396.93 667.486 1401.68 669.857C1401.45 672.456 1401.56 672.872 1400 675.039C1392.52 676.461 1369.24 675.642 1360.74 675.579L1379.31 585.546Z" fill="black"/>
<path d="M1652.31 585.546C1662.25 585.588 1682.16 584.476 1691.04 586.244C1691.68 588.295 1691.38 587.798 1690.23 590.349C1684.25 594.345 1666.44 592.647 1658.28 592.546C1656.4 603.033 1654 614.05 1651.89 624.546C1660.8 624.373 1671.99 623.422 1680.14 626.727L1679.55 626.726L1680.6 628.481C1674.85 632.827 1657.49 631.671 1650.22 631.546L1646.06 651.962L1642.81 668.546C1649.03 668.465 1669.93 667.486 1674.68 669.857C1674.45 672.456 1674.56 672.872 1673 675.039C1665.52 676.461 1642.24 675.642 1633.74 675.579L1652.31 585.546Z" fill="black"/>
<path d="M1488.67 585.546C1492.06 585.436 1493.09 585.458 1496.43 586.012C1498.76 605.745 1499.02 644.285 1499.83 665.48C1511.64 641.708 1521.67 616.316 1533.26 592.381C1535.39 587.986 1535.26 586.555 1539.91 584.839L1542.06 586.18C1542.71 589.73 1541.61 590.327 1539.83 594.111C1533.82 606.875 1508 667.596 1501.7 674.745C1499.15 674.933 1496.27 675.462 1494.05 674.416C1492.44 666.344 1492.11 650.278 1491.66 641.151C1490.75 622.611 1489.76 604.076 1488.67 585.546Z" fill="black"/>
<path d="M1791.01 585.525C1794.31 585.398 1794.87 585.391 1798.05 586.238C1797.79 591.322 1794.14 607.376 1792.93 613.207L1781.39 668.546C1791.75 668.459 1802.46 668.228 1812.77 668.727C1813.73 670.74 1812.81 672.976 1812.33 675.579H1772.32C1779.05 648.882 1785.21 613.215 1791.01 585.525Z" fill="black"/>
<path d="M1737.01 585.525C1740.31 585.398 1740.87 585.391 1744.05 586.238C1743.79 591.322 1740.14 607.376 1738.93 613.207L1727.39 668.546C1737.75 668.459 1748.46 668.228 1758.77 668.727C1759.73 670.74 1758.81 672.976 1758.33 675.579H1718.32C1725.05 648.882 1731.21 613.215 1737.01 585.525Z" fill="black"/>
<path d="M773.013 585.525C776.311 585.398 776.87 585.391 780.047 586.238C779.787 591.32 776.136 607.377 774.932 613.207L763.392 668.546C773.752 668.459 784.457 668.228 794.775 668.727C795.727 670.74 794.809 672.976 794.327 675.579H754.319C761.052 648.882 767.207 613.215 773.013 585.525Z" fill="black"/>
<path d="M1557.29 585.542C1560.1 585.471 1561.19 585.589 1563.99 585.942C1564.93 588.836 1548.12 666.526 1546.19 675.55C1543.38 675.621 1542.29 675.503 1539.49 675.15C1538.55 672.255 1555.36 594.567 1557.29 585.542Z" fill="black"/>
<path d="M828.295 585.542C831.1 585.471 832.19 585.589 834.989 585.942C835.926 588.836 819.117 666.526 817.187 675.55C814.382 675.621 813.292 675.503 810.493 675.15C809.556 672.257 826.365 594.566 828.295 585.542Z" fill="black"/>
<path d="M1140.29 585.542C1143.1 585.471 1144.19 585.589 1146.99 585.942C1147.93 588.836 1131.12 666.526 1129.19 675.55C1126.38 675.621 1125.29 675.503 1122.49 675.15C1121.55 672.257 1138.36 594.566 1140.29 585.542Z" fill="black"/>
<path d="M465.331 1179.54C471.36 1180.07 480.856 1181.73 487.082 1182.64C479.582 1200.86 466.314 1234.92 459.759 1254.64C459.286 1256.06 462.255 1258.15 463.938 1259.85C462.751 1262.13 463.214 1261.39 460.466 1262.76C453.914 1262.83 448.483 1259.03 446.437 1252.8C406.161 1264.17 418.505 1184.82 463.628 1207.03C468.212 1194.53 474.458 1191.23 465.331 1179.54ZM447.156 1249.39C450.111 1242.83 459.404 1219.76 460.76 1213.41C458.311 1210.56 457.248 1209.95 453.001 1209.62C451.943 1209.55 450.884 1209.49 449.825 1209.45C438.2 1218.49 424.593 1245.11 447.156 1249.39Z" fill="black"/>
<path d="M807.069 1258.16C809.817 1257.75 812.245 1257.64 815.008 1257.48C818.652 1261.29 806.934 1319.41 808.089 1329.05C808.744 1334.52 809.129 1334.53 813.231 1337.7L813.024 1339.61C798.701 1348.32 800.74 1331.68 789.1 1337.62C786.443 1338.97 783.006 1338.9 779.996 1338.87C767.657 1334.32 763.263 1321.63 765.565 1309.67C769.412 1289.68 781.127 1283.15 800.216 1286.55C800.851 1280.47 802.167 1271.14 802.077 1265.16C802.06 1264.07 798.123 1262.36 796.685 1261.57L796.435 1260.06C799.128 1258.11 803.498 1258.37 807.069 1258.16ZM792.162 1332.55C792.81 1331.83 793.603 1330.94 794.54 1329.9C796.225 1321.05 799.075 1302.05 798.946 1293.79C795.83 1290.74 793.042 1291.25 788.772 1291.55C779.506 1299.82 774.72 1318.8 783.803 1329.48C785.712 1331.73 789.271 1332.06 792.162 1332.55Z" fill="black"/>
<path d="M1638.77 1134.71C1665.33 1130.03 1685.56 1176.68 1651.11 1189.42C1653.63 1194.27 1656.25 1199.16 1658.91 1203.94C1662.47 1210.33 1665.71 1204.66 1670.11 1207.82C1668.3 1209.98 1652.5 1218.29 1649.08 1220.18C1648.38 1220.55 1647.15 1220.8 1646.32 1221.02C1645.81 1218.7 1647.97 1215.99 1649.37 1213.36C1644.06 1199.63 1626.92 1172.76 1619.65 1158.67C1618.62 1156.68 1615 1156.44 1612.72 1156.18L1611.61 1156.06L1611.09 1154.95C1613.65 1152.54 1622.47 1143.67 1625.02 1142.86C1626.22 1144.75 1626.08 1145.02 1627.88 1146.14C1633.21 1139.66 1631.53 1139.25 1638.77 1134.71ZM1650.28 1184.5C1653.73 1182.7 1657.29 1181.01 1658.14 1176.86C1660.77 1164.11 1650.52 1145.56 1636.98 1144.26C1634.18 1146.14 1631.63 1147.36 1630.22 1150.29C1631.4 1154.65 1646.55 1182.72 1649.4 1184.38L1650.28 1184.5Z" fill="black"/>
<path d="M322.82 1148.74C359.942 1145.51 360.072 1187.31 330.459 1201.28C293.952 1205.78 292.34 1163.08 322.82 1148.74ZM321.515 1195.99C331.416 1189.15 351.854 1159.68 332.07 1154.15C321.512 1160.76 300.779 1192.08 321.515 1195.99Z" fill="black"/>
<path d="M1686.96 1106.7C1715 1103.77 1734.93 1145.6 1700.66 1160.36C1671.57 1161.58 1653.99 1121.47 1686.96 1106.7ZM1704.54 1153.36C1715.1 1144.06 1704.25 1129.95 1697.44 1121.38C1693.59 1116.54 1689.97 1114.21 1683.72 1113.35C1672.42 1123.09 1684.61 1138.65 1692.18 1147.14C1695.84 1151.25 1698.99 1152.91 1704.54 1153.36Z" fill="black"/>
<path d="M64.9251 951.716C98.5911 948.216 104.798 988.246 69.4291 1001.58C37.3011 1007.6 27.1541 966.106 64.9251 951.716ZM57.8221 994.276C67.2201 989.846 89.0891 975.066 84.1351 962.836C81.1621 960.346 79.2941 959.576 75.2591 959.566C65.9751 964.296 47.8861 977.256 48.5181 988.906C51.0281 993.196 52.6431 993.846 57.8221 994.276Z" fill="black"/>
<path d="M1883.74 937.686C1914.84 934.786 1935.57 975.306 1901.76 989.256C1871.15 990.396 1851.37 953.576 1883.74 937.686ZM1907.55 980.046C1921.85 966.496 1891.64 947.996 1879.65 946.346C1863.77 960.066 1894.65 979.356 1907.55 980.046Z" fill="black"/>
<path d="M192.963 1025.53C199.346 1027.97 205.904 1031.11 212.154 1033.95C205 1042.55 197.372 1052.99 190.486 1061.96C231.265 1069.98 200.107 1093.12 189.092 1110.83C186.859 1114.43 190.754 1116.37 190.235 1120.66L189.027 1120.87C185.669 1118.73 170.911 1108.27 170.141 1105.52C172.333 1104.71 174.678 1105.17 177.161 1105.34C179.691 1103.65 188.439 1091.25 190.839 1087.98C196.202 1081.47 199.986 1075.57 194.347 1067.52C184.244 1062.77 171.024 1089.02 165.523 1095.89C164.648 1096.98 166.754 1099.96 167.475 1101.35L166.782 1102.98L165.507 1103.15C160.83 1099.81 149.868 1092.37 146.922 1088.07L148.22 1086.99C153.93 1088.96 153.841 1089.44 157.376 1084.9C170.621 1067.9 183.498 1050.58 196.46 1033.35C194.399 1030.29 193.291 1029.22 192.963 1025.53Z" fill="black"/>
<path d="M53.9261 895.682C71.5621 894.389 77.3901 905.066 83.2951 919.261C76.3891 922.971 69.4101 926.546 62.3621 929.976C67.1401 922.955 74.1701 919.56 73.9781 912.041C68.9781 898.312 50.3221 906.042 50.7191 917.683C51.4211 938.286 51.2981 956.176 24.9741 958.776C9.7501 955.306 5.0931 946.636 0 932.896C7.5751 928.546 14.9071 924.136 22.8971 920.596C19.5251 925.466 12.0481 932.166 9.6411 936.006C5.6161 942.416 17.3961 952.676 25.9391 948.076C41.5351 939.696 30.0721 922.791 36.7891 909.448C41.0411 901.004 45.8141 898.863 53.9261 895.682Z" fill="black"/>
<path d="M1547.91 1179.59C1571.19 1177.89 1567.99 1206.69 1578.03 1217.54C1580.64 1218.93 1581.1 1218.72 1584.21 1218.64L1585.12 1218.61L1586.37 1220.22L1585.77 1221.4C1581.48 1223.37 1566.87 1230.64 1563.35 1230.15L1562.83 1228.48C1564.58 1226.52 1564.93 1226.17 1566.26 1223.97C1562.59 1214.19 1555.27 1189.32 1543.49 1189.6C1536.3 1193.65 1538.98 1199.27 1541.22 1204.8C1544.54 1212.18 1547.87 1222.33 1552.32 1229.21C1553.3 1230.71 1556.05 1230.37 1558.23 1230.52L1559.41 1232.07C1557.96 1234.66 1539.51 1241.97 1536.22 1242C1535.53 1238.58 1537.06 1239.9 1540.09 1235.13C1539.34 1231.07 1526.12 1201.55 1524.1 1199.82C1521.38 1199.99 1520.02 1200.31 1517.47 1199.29L1517.37 1197.86C1522.19 1194.15 1527.79 1189.54 1533.02 1186.63C1533.85 1188.35 1534.2 1189.07 1535.24 1190.65C1541.82 1185.39 1539.58 1184.17 1547.91 1179.59Z" fill="black"/>
<path d="M986.691 1295.77C988.501 1295.48 987.601 1295.46 989.361 1296.19L989.611 1299.76C991.641 1300.59 998.301 1295.18 1002.09 1294.99C1024.92 1293.88 1016.61 1325.91 1018.23 1339.9C1018.58 1342.92 1023.84 1343.86 1024.51 1347.41C1020.08 1349.09 1010.82 1347.06 1005.76 1348.27C1003.56 1348.8 1001.97 1348.49 1000.37 1347.04L1000.72 1345.55C1003.14 1344.39 1003.31 1344.42 1005.4 1342.56C1006.38 1333.7 1006.08 1313.65 1003.31 1305.27C982.831 1293.68 989.951 1332.75 990.691 1342.01C990.851 1344 993.631 1344.69 995.211 1345.43L995.951 1347.51C993.581 1348.94 975.411 1348.63 971.571 1348.51L970.751 1347.52L971.231 1345.58C974.141 1344.7 974.961 1344.71 976.981 1342.62C978.061 1336.06 977.481 1309.81 974.941 1303.58C972.681 1302.74 971.331 1302.56 970.131 1300.52C971.881 1298.58 983.351 1296.52 986.691 1295.77Z" fill="black"/>
<path d="M1422.42 1201.64L1424.19 1201.86C1425.97 1207.49 1427.57 1220.61 1428.52 1227.11C1424.15 1221.79 1421.28 1215.57 1418.13 1209.45L1406.14 1213.04C1411.8 1231.32 1417.69 1249.59 1422.47 1268.1C1423.91 1273.71 1429.44 1276.25 1434.25 1278.72C1431.29 1280.8 1409.2 1287.86 1406.11 1286.19C1407.14 1283.15 1407.54 1283.64 1410.54 1281.21L1411.14 1280.79C1412.49 1276.17 1395.96 1225.6 1393.3 1216.95L1381.5 1220.47C1381.65 1227.32 1381.68 1234.17 1381.59 1241.01C1378.08 1234.61 1374.58 1224.1 1371.96 1217C1388.84 1212.09 1405.66 1206.97 1422.42 1201.64Z" fill="black"/>
<path d="M1259.63 1268.63C1262.78 1275.35 1263.71 1305.48 1268.81 1313.22C1270.62 1315.96 1272.55 1315.65 1274.81 1317.88L1274.56 1319.59C1270.36 1322.6 1265.13 1325.87 1260.2 1322.26C1251.08 1317.27 1250.95 1329.72 1237.79 1327.71C1220.46 1325.07 1226.92 1290.97 1220.32 1284.96C1218.31 1284.41 1217.1 1283.93 1215.21 1283.17L1214.9 1281.69C1217.73 1278.83 1228.25 1275.21 1232.47 1273.46C1234.09 1283.59 1236.74 1304.83 1240.61 1315.05C1242.05 1318.86 1249.65 1319.48 1254.01 1316C1255.57 1309.91 1250.22 1288.94 1248.99 1281.58C1248.66 1279.63 1244.84 1278.91 1242.55 1278.12L1242.31 1276.46C1248.12 1273.64 1253.73 1271.19 1259.63 1268.63Z" fill="black"/>
<path d="M1151.78 1284.75C1154.33 1288.63 1154.38 1324.7 1158 1332.14C1159.97 1332.84 1161.58 1333.36 1163.58 1333.96L1163.52 1335.87C1159.42 1341.01 1149.99 1340.61 1145.59 1336.01C1141.54 1336.33 1136.71 1342.35 1131.61 1343.02C1113.26 1345.44 1113.83 1310.77 1112.36 1298.03C1110.6 1297.46 1108.83 1296.88 1107.07 1296.28L1106.49 1294.54C1109.43 1291.71 1120.16 1288.89 1124.55 1287.44C1125.47 1299.64 1126.88 1311.91 1128.15 1324.08C1128.86 1330.89 1132.25 1334.62 1139.12 1333.43C1146.27 1328.54 1142.54 1301.49 1139.57 1294.85C1137.29 1294.26 1136.35 1293.99 1134.17 1293.14L1133.93 1291.18C1139.38 1288.83 1146.09 1286.71 1151.78 1284.75Z" fill="black"/>
<path d="M1917.1 888.643C1932.07 886.108 1944.72 901.875 1957.22 908.586C1960.6 910.405 1960.89 905.737 1965.73 906.369L1966.2 907.439C1963.82 911.009 1954.79 925.616 1951.73 926.586L1950.79 925.446L1951.51 921.58C1947.78 915.917 1915.04 890.069 1911.3 907.066C1913.32 914.474 1917.54 916.262 1923.89 920.41C1927.74 923.075 1938.81 931.506 1943.28 932.436C1944.29 932.646 1945 930.046 1949.18 930.526L1949.33 932.176C1946.47 936.396 1938.72 948.606 1935.34 951.296L1934.17 949.986C1935.9 943.586 1935.85 943.626 1930.57 939.976C1921.42 933.666 1912.13 927.506 1902.9 921.317C1900.56 923.197 1900.04 923.556 1897.39 924.946L1895.89 923.946C1897.12 920.598 1901.14 908.52 1903.05 906.59L1906.78 908.452C1912.33 901.158 1905 897.389 1917.1 888.643Z" fill="black"/>
<path d="M1494.52 1202.54C1496.41 1202.62 1498.28 1203.01 1500.04 1203.69C1511.45 1207.95 1513.7 1229.59 1518.72 1239.19C1520.95 1243.45 1525.07 1241.81 1527.65 1244.91C1523.52 1255.4 1513.01 1248.44 1509.08 1250.91C1499.5 1256.97 1502.63 1263.14 1487.43 1257.36C1471.87 1241.09 1485.32 1231.39 1499.96 1224.26C1492.59 1204.53 1489.26 1215.54 1476.09 1218.79C1469.16 1211.45 1489.46 1203.94 1494.52 1202.54ZM1500.44 1250.44C1504.91 1248.11 1504.64 1249.1 1506.7 1245.29C1506.96 1240.79 1503.81 1232.67 1501.44 1229.6C1490.87 1235.56 1488.98 1243.33 1500.44 1250.44Z" fill="black"/>
<path d="M492.155 1220.82C536.426 1217.95 516.364 1246.18 510.835 1269.87C510.628 1270.75 513.837 1276.23 514.492 1278.19C503.941 1282.37 502.001 1275.84 496.919 1270.4C484.778 1273.97 473.639 1270.05 475.172 1255.4C477.296 1235.1 498.287 1247.84 507.065 1240.98C514.123 1224.95 493.679 1228.04 490.368 1224.66C490.421 1221.89 490.013 1223.2 492.155 1220.82ZM497.771 1267.23C499.632 1262.82 502.99 1256.24 502.758 1251.81C500.789 1248.16 498.245 1248.67 494.242 1248.43C485.716 1256.32 485.004 1264.66 497.771 1267.23Z" fill="black"/>
<path d="M731.575 1277.69C766.477 1275.27 748.122 1307.26 748.984 1326.35C749.107 1329.07 752.815 1327.64 754.212 1331.48C749.312 1340.93 738.174 1328.95 734.917 1328.36C730.314 1330.02 728.877 1330.38 724.052 1331.23C698.568 1322.64 712.546 1295.51 739.289 1300.9C741.39 1297.13 741.534 1291.2 738.996 1287.65C734.549 1281.41 725.461 1287.97 721.358 1282.65L721.694 1280.66C724.13 1279.07 728.578 1278.37 731.575 1277.69ZM734.393 1324.57C737.314 1321.5 738.844 1311.29 738.483 1307.13C735.876 1305.86 732.226 1306.4 729.195 1306.53C726.715 1309.5 724.436 1312.86 724.699 1316.99C724.84 1319.33 726.047 1321.47 727.973 1322.81C729.869 1324.14 732.12 1324.31 734.393 1324.57Z" fill="black"/>
<path d="M257.877 1075.24C262.028 1076.12 292.293 1095.79 297.742 1099.17C292.232 1105.74 287.697 1111.02 281.713 1117.18C283.597 1111.49 285.881 1105.49 287.921 1099.81L273.415 1090.74C268.126 1099.4 262.49 1108.14 257.072 1116.75L267.067 1123.06C270.902 1119.01 274.303 1116.25 278.588 1112.67C275.498 1119.67 267.015 1132.27 262.657 1138.8L261.54 1136.94C261.325 1133.93 263.079 1130.6 264.272 1127.65L254.341 1121.31C248.917 1129.45 243.426 1138.6 238.188 1146.95C241.172 1150.68 243.116 1153.89 245.64 1157.93L226.323 1146.16C223.118 1144.16 219.734 1142.67 218.991 1139.46C221.159 1138.56 222.426 1139.33 225.236 1139.86C231.196 1135.14 256.033 1093.95 261.222 1084.71C262.266 1082.85 259.254 1078.35 257.877 1075.24Z" fill="black"/>
<path d="M102.946 984.386C107.074 985.296 117.151 991.866 121.324 994.376L106.55 1009.1C99.7661 1015.92 85.0591 1027.19 96.0181 1035.93C105.259 1037.2 121.692 1017 125.196 1009.68L123.724 1005.77L124.441 1004.43C127.373 1005.27 139.614 1012.09 140.468 1014.42L138.033 1017.09C131.027 1024.13 115.16 1039.16 109.271 1047.75C108.39 1049.04 110.567 1051.42 110.31 1054.89L108.478 1055.11C100.757 1051.75 98.0891 1050.88 97.9581 1041.93C95.8691 1038.78 89.2201 1038.56 86.4821 1036.55C65.2931 1020.99 98.0421 1004.83 105.27 991.516C104.511 989.136 103.736 986.756 102.946 984.386Z" fill="black"/>
<path d="M1791.95 1028.41C1810.49 1026.46 1815.62 1048.68 1829.11 1057.13C1831.9 1058.87 1831.77 1055.51 1835.64 1056.48C1837.91 1067.79 1824.69 1066.13 1822.11 1068.06C1813.98 1074.14 1821.12 1083.35 1801.76 1082.53C1783.48 1070.62 1791.45 1059.44 1803.34 1047.49C1799.95 1043.19 1797.86 1040 1792.26 1039.19C1788.43 1040.02 1783.09 1046.49 1779.2 1049.9C1776.62 1049 1777.74 1049.74 1775.99 1047.25C1777.5 1039.77 1785.7 1032.37 1791.95 1028.41ZM1811.73 1072.08C1815.14 1069.16 1815.46 1069.74 1816.98 1065.77C1816.04 1060.37 1810.71 1055.82 1806.81 1051.51C1798.46 1060.48 1798.51 1068.16 1811.73 1072.08Z" fill="black"/>
<path d="M681.87 1269.7C704.77 1266.84 709.34 1278.59 706.342 1298.56C698.152 1296.98 682.669 1292.21 676.83 1295.68C673.581 1304.19 682.767 1313.81 690.663 1316.76C694.409 1317.06 699.694 1316.56 700.888 1320.52C697.546 1324.39 687.673 1323.98 682.955 1322.95C654.613 1316.79 659.924 1281.46 681.87 1269.7ZM690.529 1289.96L693.23 1289.87C696.319 1284.91 696.176 1279.04 691.697 1275C690.297 1274.75 688.67 1274.4 687.278 1274.32C683.786 1278.46 680.733 1281.02 680.777 1286.24C683.601 1289.4 685.748 1289.07 690.529 1289.96Z" fill="black"/>
<path d="M845.088 1289.64C864.307 1290.52 867.48 1300.49 865.896 1317.63C858.003 1316.45 845.974 1315.81 837.732 1315.12C837.197 1334.65 844.937 1337.27 862.258 1337.38L862.893 1337.15L863.775 1338.41L862.975 1340.44C855.509 1345.41 843.402 1346.65 836.044 1341.81C815.284 1328.15 821.76 1295.88 845.088 1289.64ZM849.978 1310.61L852.342 1310.13C854.511 1304.24 853.794 1299.41 848.795 1295.48L845.146 1295C842.355 1298.7 838.871 1302.48 839.277 1307.1C842.274 1311.23 845.115 1310.4 849.978 1310.61Z" fill="black"/>
<path d="M1069.24 1267.91C1071.83 1267.58 1077.68 1266.88 1079.54 1268.26C1078.07 1270.06 1073.75 1274.6 1073.82 1276.6C1074.51 1296.92 1075.91 1318.7 1077.94 1338.88L1094.73 1337.97C1096.94 1330.38 1099 1324.14 1101.66 1316.7C1103.02 1323.97 1102.85 1335.82 1102.94 1343.56C1097.18 1343.8 1060.23 1347.23 1058.14 1345.39L1058.37 1343.21L1062.9 1340.8C1064.31 1337.4 1064.12 1332.64 1063.81 1328.98C1062.45 1312.6 1061.37 1296.2 1060.37 1279.81C1060.2 1276.9 1055.36 1271.61 1053.41 1269.42C1055.4 1268.46 1066.27 1268.1 1069.24 1267.91Z" fill="black"/>
<path d="M620.426 1229.52C624.224 1229.32 645.668 1233.5 647.459 1235.58C645.514 1237.13 639.823 1241.43 639.314 1243.54C634.577 1263.24 630.302 1283.37 625.941 1303.13L642.357 1306.94C644.699 1303.25 649.436 1295.02 653.196 1293.32L654.099 1294.59L653.06 1299.27L648.623 1314.88C641.93 1313.25 609.728 1306.18 605.527 1304.15L606.196 1301.64C609.074 1301.15 609.675 1301.15 612.256 1299.9C616.798 1288.4 623.002 1251.82 626.44 1238.36C627.129 1235.66 622.913 1232.53 620.426 1229.52Z" fill="black"/>
<path d="M1355.76 1248.76C1356.34 1248.7 1357.78 1248.88 1358.43 1248.95L1358.54 1250.41C1357.42 1251.44 1354.52 1254.14 1354.23 1255.49C1349.48 1277.86 1352.42 1302.09 1351.21 1324.77C1350.73 1333.57 1343.47 1335.86 1336.01 1333.85L1335.78 1332.35C1336.28 1332 1336.78 1331.63 1337.27 1331.25C1344.32 1325.72 1344.05 1315.99 1345.09 1307.14L1332.62 1287.05C1328.71 1280.65 1321.74 1267.43 1315.84 1263.44C1313.53 1261.88 1314.28 1262.97 1311.99 1260.27L1313.41 1259C1318.6 1258.11 1331.18 1254.41 1334.19 1254.77L1334.63 1256.54L1330.22 1260.07C1335.49 1268.86 1340.94 1277.55 1346.56 1286.12C1346.76 1276.84 1351.44 1259.24 1343.44 1253.75L1343.27 1251.89L1355.76 1248.76Z" fill="black"/>
<path d="M1203.68 1279.9C1206.73 1279.26 1205.42 1278.98 1207.81 1280.05L1207.73 1281.88C1199.77 1286.3 1198.44 1294.39 1194.8 1303.59C1197.8 1308.06 1201.14 1312.85 1204.09 1317.28C1209.19 1324.97 1209.04 1324.35 1216.51 1328.23L1216.68 1329.97C1214.31 1330.66 1196.78 1333.99 1195.97 1331.3C1193.78 1324.13 1192.32 1321.76 1187.69 1315.57C1185.13 1321.1 1182.43 1325.85 1183.78 1331.96C1184.1 1333.43 1184.08 1333.28 1183.45 1334.66L1177.59 1335.74C1174.6 1336.23 1173.08 1336.78 1170.27 1335.93L1170.4 1334.15C1179.42 1328.12 1180.02 1321.52 1184.33 1310.59C1180.78 1305.22 1177 1299.78 1173.41 1294.47C1168.82 1287.68 1168.54 1291.11 1163.63 1287.07L1163.88 1285.74C1167.93 1284.2 1176.92 1283.15 1181.48 1283.07C1186.4 1282.98 1185.14 1288.58 1186.71 1291.54C1187.88 1293.76 1189.95 1296.56 1191.6 1298.74C1194.78 1291.79 1195.62 1290.06 1194.79 1282.51L1194.72 1281.9C1197.38 1279.89 1199.87 1280.3 1203.68 1279.9Z" fill="black"/>
<path d="M301.256 1099.75C307.754 1101.83 314.265 1103.87 320.789 1105.86C316.513 1112.6 281.661 1170.9 282.259 1173.76C282.822 1176.45 285.712 1177.35 285.42 1180.86L283.242 1180.62C279.335 1178.36 264.055 1170.29 263.04 1167.53C265.18 1166.12 266.698 1166.91 269.826 1167.28C272.963 1165.49 301.217 1114.82 304.064 1107.94C304.927 1105.86 301.504 1104.36 301.256 1099.75Z" fill="black"/>
<path d="M1597.63 1157.61C1599.25 1157.54 1599.26 1157.72 1600.88 1158.14C1603.58 1163.07 1604.98 1170.02 1606.38 1175.59C1601.28 1171.03 1599.2 1164.79 1592.47 1164.82C1586.75 1167.49 1584.36 1170.44 1585.77 1176.58C1588.51 1179.69 1593.37 1180.29 1597.93 1179.62C1614.34 1177.2 1625.54 1189.1 1616.96 1204.62C1613 1211.77 1603.25 1214.14 1594.62 1215.45C1591.27 1213.43 1588.69 1200.96 1587.43 1196.45C1590.39 1199.45 1598.03 1209.65 1602.06 1208.37C1608.52 1206.3 1611.56 1202.17 1609.49 1195.56C1595.54 1192.86 1558.63 1189.88 1582.76 1164.33C1586.38 1160.5 1592.53 1159.01 1597.63 1157.61Z" fill="black"/>
<path d="M559.765 1239.7C570.329 1239.43 574.555 1241.5 583.58 1246.63L575.184 1263.76C574.853 1258.76 575.368 1251.2 573.331 1247.67C568.482 1244.8 563.832 1245 559.801 1249.1C559.521 1249.98 559.189 1251.01 558.805 1252.21C564.071 1261.25 574.321 1265.87 576.546 1277.15C578.351 1286.3 568.457 1291.62 560.816 1293.28C550.54 1292.86 546.344 1290.82 538.542 1284.47C541.491 1278.33 544.521 1272.23 547.632 1266.18C547.935 1274.74 542.605 1287.36 557.919 1287.09C560.487 1287.05 561.522 1285.18 562.876 1283.4C564.287 1272.22 528.79 1253.36 559.765 1239.7Z" fill="black"/>
<path d="M1746.51 1048.55C1748.43 1050.38 1753.58 1057.53 1755.46 1060.04C1759.39 1056.84 1761.64 1053.74 1766.85 1054.81L1767.29 1056.89C1765.87 1060.75 1762.74 1062.36 1759.28 1064.89C1765.33 1073.14 1773.76 1085.71 1781.23 1092.5C1785.94 1096.77 1788.88 1089.09 1793.67 1088.47L1795.33 1090.97C1774.52 1128.53 1759.51 1077.55 1748.65 1072.74C1746.22 1073.42 1744.57 1074.25 1742.31 1073.35L1742.01 1071.75L1746.4 1066.95C1742.77 1057.72 1740.16 1056.44 1746.51 1048.55Z" fill="black"/>
<path d="M164.221 1021.45C167.127 1022.25 167.703 1022.22 169.889 1024.14C169.726 1028.58 165.37 1032.07 162.019 1035.74C165.731 1038.77 169.743 1040.72 169.197 1045.78L167.371 1046.5C163.568 1046.04 161.109 1043.14 158.059 1040.47C150.95 1048.51 135.752 1061.44 135.868 1071.26C137.1 1074.88 139.43 1075.97 142.612 1078.29C141.823 1079.3 141.23 1079.61 140.189 1080.42C139.385 1080.45 137.803 1080.54 137.029 1080.27C100.79 1067.65 144.591 1044.27 147.661 1031.84C146.808 1029.25 146.18 1028.08 146.516 1025.35C149.704 1025.44 150.385 1026.49 153.381 1028.29L164.221 1021.45Z" fill="black"/>
<path d="M1811.87 992.446L1822.04 1003.06C1825.47 999.486 1827.22 996.346 1832.39 996.486L1833.25 998.346C1832.5 1002.55 1829.52 1004.44 1826.21 1007.47C1831.74 1013.51 1846.63 1031.67 1853.41 1033.25C1858.75 1032.39 1858.46 1028.13 1862.92 1027.24L1864.8 1029.37C1850.57 1063.81 1831.76 1030.26 1818.26 1017C1816.13 1014.91 1813.85 1018.8 1809.92 1017.81L1809.41 1016.15L1813.1 1011.21C1813 1006.48 1810.94 1004.6 1808.6 1000.64C1808.84 995.796 1808.98 996.956 1811.87 992.446Z" fill="black"/>
<path d="M1462.94 1213.21L1464.33 1213.89C1466.46 1221.15 1467.57 1229.75 1468.77 1237.3C1464.87 1232.58 1462.36 1225.48 1455.94 1225.04C1450.71 1232.19 1460.93 1254.85 1464.55 1262.29C1465.28 1263.79 1470.15 1263.72 1471.99 1263.93L1472.95 1265.94C1470.29 1267.76 1459.19 1271.14 1455.51 1272.36C1452.19 1273.77 1451.73 1274.19 1448.24 1274.09L1447.28 1273.01C1448.92 1270.81 1449.74 1269.87 1451.69 1267.93C1451.63 1267.37 1451.54 1266.4 1451.42 1265.8C1450.68 1262.14 1440.76 1232.35 1439.09 1231.18C1437.52 1230.08 1434.28 1231.15 1432.02 1229.53C1433.33 1227.3 1446.29 1219.03 1448.86 1218.83C1449.58 1220.71 1449.75 1221.63 1451.22 1223.03C1455.96 1218.03 1457.13 1216.74 1462.94 1213.21Z" fill="black"/>
<path d="M1306.48 1258.45C1307.77 1264.61 1307.95 1277.09 1308.19 1283.71C1305.27 1278.72 1303.61 1272.71 1298.71 1269.89C1295.13 1270.17 1296.49 1269.71 1293.47 1272.51C1293.83 1279.62 1298.64 1299.9 1300.57 1307.51C1302.75 1309.87 1303.88 1309.3 1307.73 1309.84L1308.83 1311.53L1308.25 1312.51C1302.39 1314.5 1295.93 1315.65 1289.83 1316.9C1287.52 1317.33 1283.96 1318.46 1282.21 1317.67C1283.73 1314.79 1285.16 1313.72 1287.52 1311.47C1287.61 1306.61 1281.71 1282.2 1280.53 1275.84C1280 1272.99 1276.47 1273.3 1273 1272.03L1273.04 1270.21C1276.32 1268.62 1287.27 1262.99 1290.14 1262.49L1291.42 1266.88C1294.86 1266.52 1300.67 1260.73 1306.48 1258.45Z" fill="black"/>
<path d="M363.438 1168.43C366.798 1168.44 381.119 1170.8 383.837 1172.47C383.508 1173.99 383.236 1175.35 382.978 1176.88C387.343 1178.05 395.497 1178.51 398.079 1180.77C397.377 1184.6 388.632 1195.97 385.862 1199.89C386.406 1192.59 389.053 1189.11 384.904 1182.36L383.056 1182.02C376.99 1185.82 372.759 1197.57 369.793 1204.32L364.426 1215.77C367.966 1219.24 370.448 1222.21 373.632 1226.02L354.055 1217.16C351.227 1215.85 346.156 1213.97 345.228 1211.45L346.511 1210.23C349.015 1210.42 350.153 1210.67 352.612 1209.99C356.547 1203.18 365.97 1182.76 368.508 1175.35C366.797 1172.57 365.466 1170.95 363.438 1168.43Z" fill="black"/>
<path d="M892.755 1292.87C893.69 1292.83 893.666 1293.02 894.667 1293.52C894.588 1295.8 894.259 1296.15 895.212 1298C899.282 1296.18 906.401 1291.87 910.481 1293.79C911.521 1296.83 907.271 1313.39 906.361 1317.41C904.961 1311.78 904.111 1303.42 897.811 1301.85C892.204 1305.72 891.704 1334.78 893.166 1340.81C896.423 1341.95 897.798 1342.02 899.604 1344.7L898.667 1345.61C891.328 1346.65 880.257 1345.23 872.844 1344.1L873.217 1342.15C876.111 1341.28 876.95 1341.22 879.312 1339.45C880.14 1335.81 881.821 1304.35 881.308 1300.94C879.389 1299.94 877.452 1298.99 875.497 1298.07L875.33 1296.56C877.492 1295.02 889.357 1293.44 892.755 1292.87Z" fill="black"/>
<path d="M1735.11 1072.33C1739.15 1079.99 1742.36 1086.39 1745.87 1094.29C1741.19 1090.6 1736.26 1084.64 1729.77 1086.36L1729.11 1088.52C1730.61 1097.11 1742.75 1113.6 1749.49 1119.53C1751.29 1121.11 1754.1 1120.06 1756.92 1119.6L1757.79 1120.61C1756.27 1123.33 1744.99 1130.44 1741.68 1132.69C1738.37 1135.05 1739.26 1135.2 1735.99 1135.13C1736.15 1131.87 1737.14 1131.46 1739.18 1128.45C1732.42 1118.81 1725.26 1108.5 1718.37 1098.87C1716.76 1096.62 1712.59 1097.11 1709.43 1096.94L1709.36 1095.76C1711.92 1092.92 1719.44 1083.1 1722.01 1082.62L1724.74 1086.05C1726.17 1085.22 1729.85 1077.24 1735.11 1072.33Z" fill="black"/>
<path d="M401.812 1185.6C405.689 1185.76 418.412 1188.27 422.86 1189.03C418.697 1197.07 404.35 1227.48 405.289 1234.74C406.721 1236.47 407.151 1237.08 408.342 1238.99L407.594 1240.32L405.477 1240.03C401.607 1238.35 385.735 1231.93 384.223 1229.69C385.235 1229.33 386.239 1228.95 387.234 1228.55C391.354 1226.87 392.626 1226.36 394.401 1222.31C398.769 1212.35 402.868 1202.28 407.009 1192.22C404.323 1189.89 402.68 1188.99 401.812 1185.6Z" fill="black"/>
<path d="M956.051 1294.84C958.921 1298.6 954.231 1337.34 957.171 1342.77C959.611 1343.8 961.681 1344.26 963.021 1346.41L962.171 1348.2C954.611 1347.97 947.051 1347.81 939.491 1347.73C937.681 1347.74 938.111 1347.64 936.281 1346.9L936.411 1346.29C938.601 1344.24 939.831 1343.8 942.541 1342.42C944.611 1336.39 944.791 1311.95 942.571 1305C940.941 1299.89 939.561 1303.7 937.901 1299.42C939.781 1297.83 952.651 1295.56 956.051 1294.84Z" fill="black"/>
<path d="M1846.94 973.446C1858.44 984.696 1870.12 995.756 1881.97 1006.63C1884.05 1005.63 1885.29 1005.18 1887.48 1004.42L1888.74 1005.18C1887.52 1009.04 1877.93 1018.16 1874.49 1021.7C1872.9 1023.53 1873.86 1023 1871.57 1023.44C1870.87 1021.16 1871.74 1020.05 1872.53 1017.27C1870.96 1012.57 1849.27 992.516 1844.5 989.196C1841.69 990.416 1840.7 991.086 1837.7 991.266C1837.15 988.336 1844.77 977.066 1846.94 973.446Z" fill="black"/>
<path d="M545.845 1202.18C566.264 1203.57 547.944 1224.73 539.34 1230.75C537.408 1231.82 537.341 1232.16 535.234 1231.91L534.651 1229.44C554.558 1210.5 536.853 1215.06 545.845 1202.18Z" fill="black"/>
<path d="M421.672 1161.09C434.266 1163.03 431.763 1171.16 424.872 1178.39C411.545 1176.76 414.343 1168.15 421.672 1161.09Z" fill="black"/>
<path d="M947.371 1268.1C959.531 1268.75 959.851 1277.19 953.101 1285.39C950.481 1285.23 948.391 1285.21 946.231 1283.58C944.591 1282.36 943.511 1280.52 943.251 1278.5C942.711 1274.2 944.851 1271.19 947.371 1268.1Z" fill="black"/>
<path d="M1824.75 958.206C1834.85 958.216 1840.19 964.816 1833.82 973.876C1823.44 973.746 1817.81 967.506 1824.75 958.206Z" fill="black"/>
</svg>
