<svg width="120" height="102" viewBox="0 0 120 102" fill="none" xmlns="http://www.w3.org/2000/svg">
<path d="M69.2796 16.3623C74.2392 16.0141 79.3107 15.5312 84.2725 15.1115L88.4564 14.7574C92.324 14.4315 91.6291 14.1473 93.0831 17.6957C95.2325 23.105 97.0643 28.6125 97.9248 34.3906C98.5112 38.3282 98.3285 42.0215 96.4585 45.6227C94.7588 48.8968 91.9188 51.4316 89.0861 53.7194C88.0284 54.5741 87.324 54.9013 86.45 56.037C84.6737 58.345 85.0248 60.7182 85.2442 63.3876L85.6802 68.5099L86.1799 74.3806C86.2672 75.4264 86.3447 76.8 86.4913 77.8184C86.5968 78.5866 86.8509 79.3266 87.2398 79.9973C88.4115 82.0287 90.1851 82.241 92.2737 82.5884L96.0973 83.1903C96.7309 83.2941 97.6802 83.3964 98.184 83.7907C98.6998 84.1946 98.7109 84.7457 98.7592 85.3297L95.7956 85.588L79.2926 86.9899L74.6541 87.3784C73.9724 87.4352 72.6544 87.5794 72.0223 87.5392C71.9335 87.4184 71.9255 87.352 71.9071 87.2029C71.7068 85.4674 73.3551 85.4536 74.43 84.9986C76.4867 84.1274 80.3342 83.4944 81.6877 81.6948C82.2806 80.9025 82.6416 79.9602 82.7301 78.9739C82.8149 78.053 82.6658 76.7394 82.5835 75.7929L82.2252 71.5985L81.6415 64.7027C81.5363 63.4733 81.4331 61.8763 81.2579 60.6791C80.9559 58.6521 79.7792 56.8609 78.0402 55.7812C77.2749 55.3011 76.3243 54.873 75.5229 54.4357C69.9723 51.4079 65.2628 47.114 64.4742 40.4752C63.6656 33.3575 64.9256 26.0735 66.3894 19.1183C66.9251 16.5731 66.7221 16.6216 69.2796 16.3623ZM91.9471 36.2354C93.2196 36.1268 94.6348 35.9733 95.8974 35.9023C95.308 30.9517 93.9882 26.3888 92.2578 21.7315C91.6502 20.0959 91.0309 18.3905 90.3339 16.7931L77.4836 17.8991C74.6182 18.1423 71.6419 18.4356 68.7781 18.6232C67.3765 24.8904 66.0982 31.963 66.4656 38.4048L91.9471 36.2354Z" fill="#c9a84c"/>
<path d="M56.1771 19.377C56.6943 19.3811 57.199 19.6138 57.2812 20.1598C57.3778 20.8016 56.497 21.7413 56.1202 22.2505C55.339 23.2949 54.5693 24.348 53.8113 25.4094L60.1354 26.0776C60.9329 26.1624 61.7304 26.2428 62.5276 26.3259C62.9785 26.373 63.5631 26.4352 63.8552 26.8267C64.5687 27.7818 63.4951 28.6501 62.8962 29.3212L60.1537 32.3409L48.6788 45.0205C47.518 46.3183 46.3493 47.6087 45.1726 48.8919C44.13 50.0446 42.8932 51.3119 42.1132 52.6397C41.4832 53.7073 41.0216 54.866 40.7446 56.0749C40.4656 57.2749 40.3589 58.5242 40.2277 59.7493L39.758 64.1363C39.2761 68.6325 38.791 73.1278 38.3118 77.6262C38.0791 79.8099 38.5503 81.7771 40.5764 82.9315C41.2004 83.2869 42.0297 83.5645 42.7217 83.8245C44.0254 84.3119 45.3335 84.7881 46.6459 85.2516C47.2636 85.4758 48.1955 85.7518 48.6082 86.2734C48.9747 86.7366 48.8546 87.3032 48.7879 87.842C47.9998 87.7091 46.8446 87.6249 46.0205 87.5392L41.0182 87.0073L24.917 85.2701C24.5003 85.2262 22.2753 85.0586 22.0942 84.8668C22.0388 84.6524 22.0857 84.4032 22.1377 84.1886C22.4189 82.9701 23.8957 83.0051 24.91 82.8585C26.9235 82.5723 28.9943 82.4121 30.9728 81.9341C31.713 81.7551 32.5205 81.2044 33.0304 80.6484C34.4023 79.1522 34.4372 77.087 34.6395 75.1805L35.0476 71.3393L36.1031 61.4913C36.4449 58.3238 37.0772 55.0572 36.0534 51.9575C35.6384 50.7012 35.0196 49.6918 34.3591 48.5552L32.5581 45.4483L23.7022 30.0438L21.2206 25.7157C20.8485 25.0651 20.4746 24.4373 20.1031 23.7659C19.7273 23.0869 19.7265 22.6724 20.333 22.1092C20.5722 21.8871 20.8849 21.8981 21.2009 21.9221C22.3633 22.0103 23.5275 22.1507 24.6879 22.2749L31.4179 22.9974L51.5685 25.1638C53.0205 23.3984 54.225 21.3575 55.726 19.6291C55.8288 19.5108 56.0331 19.4314 56.1771 19.377ZM26.3584 30.1079C30.8357 30.5358 35.3656 31.0596 39.8417 31.5399L43.6942 31.9531C44.6294 32.0536 45.6638 32.183 46.5974 32.1965L47.85 30.415C48.5319 29.478 49.4608 28.0853 50.1487 27.2153L30.2451 25.0763C27.914 24.8106 25.3311 24.6128 23.0348 24.2819C23.7127 25.6024 24.4525 26.8819 25.2077 28.1593C25.5298 28.704 25.9897 29.6428 26.3584 30.1079ZM52.2501 27.4283C51.2195 28.7445 49.4184 31.0865 48.5056 32.4905C51.0693 32.6995 53.7011 33.1013 56.2357 33.3042L56.6484 32.8886L59.1578 30.1051C59.6499 29.5496 60.2149 28.8592 60.7198 28.3343C58.3215 28.1714 55.8944 27.8055 53.4993 27.5875C53.0975 27.5509 52.6444 27.5004 52.2501 27.4283ZM38.1913 45.6813C38.5556 45.295 39.6406 44.0279 39.9535 43.7563C41.4199 44.1455 42.3446 44.2316 43.7258 43.4309C45.0241 42.689 45.9729 41.4586 46.3617 40.0128C46.7202 38.6366 46.4763 37.4744 45.6317 36.3481C45.83 35.9479 46.4432 35.1707 46.7384 34.7826C47.3082 34.0332 47.89 33.2388 48.4816 32.5107C47.91 32.4459 47.1032 32.332 46.547 32.3236C46.2271 32.616 44.695 34.9135 44.3239 35.4346C43.3656 35.0397 42.2258 35.0735 41.2728 35.4649C39.9282 36.028 38.8653 37.1078 38.3219 38.4623C37.6414 40.1518 37.8521 41.6097 39 42.999C38.7078 43.486 37.1204 45.9686 37.1921 46.4441C37.4267 46.5471 38.0039 45.8713 38.1913 45.6813Z" fill="#c9a84c"/>
<path d="M43.1464 36.3017C43.603 36.3488 43.858 36.437 44.292 36.7182C44.7736 37.0302 45.5861 37.9833 45.1853 38.6015C45.0442 38.8192 44.7559 38.8967 44.4972 38.9312C42.9099 38.7241 41.3889 36.4496 43.1464 36.3017Z" fill="#c9a84c"/>
</svg>
