<svg width="120" height="102" viewBox="0 0 120 102" fill="none" xmlns="http://www.w3.org/2000/svg">
<path d="M70.7221 16.2988L70.8203 16.3356C70.9968 16.8445 70.0331 19.6439 69.8873 20.4517C69.4004 23.1486 68.886 25.8321 68.5749 28.5574C68.4505 29.6474 68.4445 30.743 68.3816 31.8371C68.2975 33.2982 68.1717 34.7648 68.157 36.2284C68.145 37.4223 68.2886 47.8113 68.661 48.1924C69.6004 47.4656 80.8037 25.9042 82.2335 23.1206C82.5978 22.4113 84.915 17.7069 85.129 17.5001C85.2981 17.4936 85.3495 17.472 85.497 17.6312C88.1601 20.5062 87.0879 22.9204 87.2781 26.7272C85.8693 27.0353 84.186 27.4143 82.7975 27.7547C83.6459 29.1716 84.1617 30.1716 84.8614 31.6638C83.9543 33.0415 81.3976 35.8804 80.2183 37.2629C77.5153 40.4486 74.829 43.6485 72.1594 46.8623C71.6919 47.4265 69.1746 50.4362 68.9823 50.8159C69.534 50.6079 85.4784 33.537 86.9241 31.8204C86.104 30.8186 85.7069 29.7415 84.9859 28.7086C85.8907 28.3946 87.5817 28.1253 88.648 27.8404C88.4997 26.68 88.5482 25.4931 88.4133 24.322C88.3285 23.5857 88.2743 22.8283 88.1745 22.0929C88.1299 21.7649 88.0374 21.6257 88.0202 21.2708C88.4227 21.2053 89.3821 21.9562 89.7724 22.2239C91.8623 23.7823 95.9718 25.305 97.9779 27.2395C98.3452 27.5939 98.544 28.2712 98.5907 28.771C98.7551 30.5354 98.8926 32.3363 99.0619 34.1024C99.4939 38.6154 100.032 43.0968 100.261 47.6244C100.374 49.8442 100.934 52.3454 100.83 54.5793C100.796 55.3007 100.229 57.5114 99.9741 58.0878C99.0243 60.2383 92.4608 74.6692 91.5031 75.5508C90.8754 75.5539 87.6133 73.49 86.8997 73.0464C86.8885 73.8265 87.1206 75.2558 87.1881 76.1325C83.0195 78.072 73.6471 81.8476 70.5282 76.8138C67.5891 72.0702 66.9906 66.1542 65.3251 60.9407C64.3543 57.977 63.0773 55.1231 61.5149 52.4255C61.2257 51.9162 60.1553 49.9086 60.0187 49.321C59.3855 46.5992 59.4925 43.089 60.0605 40.3497C60.2438 39.8071 60.636 39.247 60.8588 38.7301C62.3461 35.2788 62.2385 31.4851 59.8747 28.4492C59.2574 27.6562 58.4941 26.879 58.0151 26.031C58.5244 25.0185 59.2984 23.3984 59.6098 22.3635C60.1638 20.2794 59.3055 20.2456 61.6254 19.8975C63.5522 19.5569 65.4494 18.977 67.3294 18.4382C68.5099 18.0999 69.6362 16.9501 70.7221 16.2988ZM86.8956 66.8811C88.0035 64.3288 89.3331 61.8736 90.3039 59.2599C90.8268 57.8523 91.4286 56.6929 91.5182 55.1472C91.7399 51.3215 90.3002 47.713 89.7779 43.9735C89.7671 43.8963 89.6791 43.7812 89.6118 43.7387C88.5031 45.9687 87.7697 48.2728 86.8402 50.4872C85.2387 54.3023 85.0668 57.0011 85.7777 61.0303C86.1101 62.9147 86.2019 65.1159 86.6648 67.0367L86.7514 67.1261C86.8291 67.0224 86.863 67.0018 86.8956 66.8811Z" fill="#c9a84c"/>
<path d="M53.1134 15.749C54.5198 15.6669 55.9104 15.9495 57.1021 16.7226C59.1551 18.0542 57.6317 22.5655 56.7717 24.2058C56.5981 24.537 55.5272 26.2269 55.5722 26.2843C56.9133 27.9986 59.2937 30.0639 59.8077 32.293C60.6259 35.8417 58.9838 37.5463 58.0815 40.6465C57.5549 42.4556 57.5455 45.8532 57.7713 47.7273C58.1243 50.6556 59.6194 52.6512 60.9061 55.1605C62.0933 57.4758 63.0435 60.0338 63.8551 62.5083C64.0674 63.1555 64.2197 64.0139 64.3957 64.7004C64.7723 66.17 65.1529 67.6373 65.4436 69.1276C65.6145 70.0033 65.6425 70.892 65.7752 71.7537C65.9927 73.1656 66.1391 74.6182 66.3415 76.0229C66.5518 77.4828 66.5714 79.2354 66.8236 80.6045C59.1084 79.6886 51.3248 85.2665 44.3846 87.6099C41.2103 88.4706 37.9102 89.1953 34.6056 88.867C33.9154 88.7985 30.0102 88.0868 29.7373 87.6307C36.6489 82.485 38.6671 74.726 41.3755 67.008C41.5608 66.4799 41.8703 65.9393 42.0526 65.4129C42.9236 62.8993 44.2647 60.9267 45.6254 58.6903C37.9031 66.3199 38.5659 79.0429 28.1977 85.3885C27.6984 85.7509 27.3698 85.8529 26.7997 86.0271C24.3583 85.438 21.4223 81.7824 20.2456 79.6703C24.6333 78.4588 27.951 76.2237 30.6712 72.5213C33.4127 68.7901 34.7519 64.3142 37.2442 60.4362C37.8255 59.5499 38.4498 58.6927 39.1146 57.8676C40.113 56.6507 42.4309 54.3793 42.6949 53.0299C43.6275 48.26 37.151 43.6006 34.8836 39.9349C37.2686 39.5833 37.9741 37.2345 37.0593 35.2144C36.696 34.4121 34.808 34.9603 34.0005 34.9807C31.8964 35.0338 29.4369 35.0875 27.4068 34.4395C26.6625 34.2019 24.6083 33.3111 24.2499 32.5688C23.9277 31.6119 24.6643 29.7927 24.9819 28.8804C26.1413 25.5504 28.5813 25.5425 31.3262 24.273C33.7594 23.1476 34.2073 21.6137 35.0582 19.3793C35.1843 22.4694 33.9758 24.2086 31.3023 25.6749C30.7317 26.0114 28.8816 26.8948 29.0954 27.7014C29.3451 28.6432 31.8204 29.8407 32.6372 30.1187C34.6711 30.8111 37.0377 31.135 39.1693 30.9696C41.0829 30.8165 42.9985 30.5757 44.9115 30.9005C47.1987 31.2889 49.0011 32.042 50.8736 33.3957C50.7911 30.3245 51.3733 27.9828 52.941 25.3544C53.9107 23.7288 54.7003 20.2615 53.3939 18.6628C51.6602 16.5413 48.0345 19.4757 45.8334 19.0598C44.7918 18.8629 43.942 18.6278 43.2584 17.7022C43.0448 17.4337 42.4901 16.6835 42.5244 16.3919C42.9044 16.4983 43.6037 17.2268 44.0038 17.4651C46.5904 19.0058 48.6964 17.1588 51.109 16.2922C52.0315 15.9608 52.1613 15.913 53.1134 15.749Z" fill="#c9a84c"/>
<path d="M77.1417 13.0549C78.4069 12.9402 83.1642 13.6295 83.8661 14.7572C83.953 16.1144 79.3458 18.4152 78.1842 18.924C77.2552 19.4667 76.6684 19.8565 75.6456 20.1911C74.6702 19.1696 72.674 16.2854 72.3687 14.9062C72.0786 13.5959 76.3202 13.1173 77.1417 13.0549Z" fill="#c9a84c"/>
<path d="M71.4886 18.8809C72.4856 18.966 73.5387 20.2065 74.321 20.7659C74.5154 20.9049 75.4042 20.9289 75.684 21C76.0227 21.086 76.3226 21.2498 76.636 21.4132C76.8088 21.3018 76.9899 21.2042 77.1778 21.1211C77.7198 20.8868 79.4163 20.1892 79.8766 20.4904C80.9114 21.1675 79.8388 24.6029 79.4613 25.4152C78.5799 25.9291 76.7781 24.102 76.1134 23.5381C75.3406 23.4722 74.8824 23.4433 74.177 23.1134C73.2571 23.4206 71.9847 24.0904 71.0475 23.872C70.1107 23.2174 71.1654 19.7617 71.4886 18.8809Z" fill="#c9a84c"/>
</svg>
