<svg width="120" height="102" viewBox="0 0 120 102" fill="none" xmlns="http://www.w3.org/2000/svg">
<path d="M29.9665 60.9693C31.7293 62.1697 38.1518 63.2096 40.4585 63.7042C43.1666 64.2848 46.2093 64.9635 48.9579 65.3152C50.8538 65.5577 53.5499 65.8863 55.4321 65.8713C55.5711 69.7706 54.5924 72.1699 58.9394 72.273C64.6081 72.4074 64.3651 71.6554 64.3322 65.9036C66.4065 65.8795 68.8622 65.5092 70.9544 65.2933C73.8171 64.9979 76.7552 64.1225 79.5876 63.6561C81.9953 63.2596 84.2832 62.7438 86.6472 62.0759C87.6376 61.8178 89.0168 61.5658 89.8324 60.9082C89.976 66.8626 89.8432 73.3183 89.8679 79.3221C89.8513 80.1806 89.8303 80.9744 89.8741 81.8341C88.3141 81.6676 86.299 82.7771 85.1405 83.9009C83.5323 85.4847 82.5456 87.7292 82.3982 90.1394C79.278 90.0665 75.9632 90.1286 72.8308 90.1283L54.542 90.1269L43.3756 90.1276C41.703 90.1281 39.0256 90.0417 37.4334 90.1721C37.0907 87.1815 36.0123 84.6693 33.6724 83.0937C32.5064 82.3086 31.2948 81.724 29.9147 81.8514L29.9212 67.6609C29.9207 66.3081 29.8263 62.1095 29.9665 60.9693Z" fill="#c9a84c"/>
<path d="M37.6447 43.7513L68.9813 43.7624L77.619 43.7559C79.1568 43.7542 80.8917 43.7121 82.414 43.7874C82.7473 48.1663 85.8529 52.095 89.8757 51.9852C89.7757 53.7781 90.45 58.8698 88.6323 59.5589C84.8211 61.0037 80.6605 61.5645 76.7115 62.4427C75.2873 62.7563 73.072 63.2323 71.6473 63.3979L66.8974 63.9145C66.1008 64.0032 65.1031 64.0827 64.3316 64.248C64.3944 62.5987 64.4411 59.6733 62.5468 59.4583C61.0729 59.2909 59.13 59.3844 57.6355 59.4074C55.3746 59.4423 55.3278 62.3281 55.4731 64.2478C53.1222 63.7396 50.3503 63.7735 47.9406 63.3773C45.3012 62.9435 42.7338 62.3531 40.0803 61.7753C37.0727 61.1206 33.1555 60.7683 30.4972 58.985C29.6499 58.3319 29.909 53.4271 29.9126 52.0249C33.9401 51.7415 36.5552 48.8878 37.3261 44.4644C37.3883 44.107 37.377 43.9568 37.6447 43.7513Z" fill="#c9a84c"/>
<path d="M62.2756 11.7105C62.7678 11.703 63.7929 12.3131 64.2904 12.5503L68.4584 14.5862C70.1762 15.4198 72.1161 16.2101 73.7563 17.2578C74.5992 18.298 72.5786 21.4455 72.4263 22.386C71.9256 25.4769 72.5412 28.522 70.9284 31.3108C69.8055 31.1955 67.1467 31.2253 65.9832 31.2653C65.8275 31.054 65.6682 30.8462 65.5055 30.6419C64.5018 29.3985 63.1065 29.4029 62.0475 30.5442C61.7888 30.1338 61.568 29.7779 61.1902 29.4911C60.5969 29.0336 59.8661 28.8666 59.1629 29.0279C58.3445 29.2128 57.9957 29.6329 57.5781 30.3582C56.4332 29.2687 56.0691 29.0975 54.6164 29.395C55.0337 28.5481 55.4697 27.8507 56.094 27.1906C58.2304 26.9914 60.097 27.7596 62.2557 26.6546C62.8858 26.2148 65.8583 24.2175 64.5934 23.2205C64.136 23.2593 63.9206 23.925 63.5555 24.3361C62.2975 25.7539 60.447 26.2831 58.7196 26.1974C57.2834 26.1539 56.6646 25.5399 55.3819 26.5469C52.808 28.5676 54.0416 33.8597 50.1885 34.0493C48.9392 34.1111 49.3365 32.5918 49.4863 31.7367C50.0336 28.6123 50.3061 26.4875 51.9598 23.8262C52.8687 22.3634 53.456 20.3029 55.1148 19.3582C56.6733 18.4706 58.3918 17.6383 59.744 16.3794C60.7966 15.3269 60.9982 12.6671 62.2756 11.7105Z" fill="#c9a84c"/>
<path d="M57.6678 61.2126C58.8865 61.1569 60.7507 61.064 61.9229 61.2292C62.098 61.2539 62.506 61.3245 62.6059 61.5091C62.9584 62.1602 62.9169 68.8278 62.7202 69.7483C62.6426 70.1117 62.5311 70.286 62.2562 70.4738C60.7321 70.4902 59.0904 70.6089 57.5911 70.3756C57.0699 70.2944 56.9835 69.4461 56.9848 68.9686C56.9914 66.574 56.8698 64.1148 57.047 61.736C57.0644 61.5016 57.5051 61.29 57.6678 61.2126ZM60.12 68.5074C60.7854 68.1426 60.7563 67.327 60.7599 66.5573C60.7645 65.5575 60.7762 64.5513 59.6619 64.55C58.9778 64.9977 59.0093 65.7351 59.0111 66.5596C59.0132 67.6054 59.0626 68.4702 60.12 68.5074Z" fill="#c9a84c"/>
<path d="M69.0659 32.5026C69.4052 32.5155 69.8508 32.5027 70.1885 32.4969C75.0487 32.4121 74.5826 36.5031 74.5502 40.3462C76.2979 40.2263 76.5149 40.6528 76.675 42.4934L74.2527 42.4748C72.6494 42.4841 71.0462 42.4807 69.443 42.4645C69.3988 40.5421 69.906 40.3456 71.488 40.323C71.4443 39.345 71.4615 38.3263 71.5126 37.3519C71.5312 36.9975 71.5469 36.5986 71.3011 36.3325C70.9128 35.912 69.8713 35.9705 69.3323 35.949C69.3707 35.7671 69.4073 35.5846 69.4423 35.4019C69.5977 34.5854 69.7387 33.9 69.2822 33.2157C69.0903 32.9281 69.0108 32.7863 69.0659 32.5026Z" fill="#c9a84c"/>
<path d="M48.1241 32.5508L48.2687 32.5765C48.4025 32.7431 48.357 33.5225 48.5972 34.1004C49.3827 35.9895 50.9853 34.9441 51.4092 35.1394C51.4532 35.3749 51.2794 35.6919 51.1794 35.9274C50.4904 36.0299 48.2529 35.7042 48.2648 36.8431C48.2768 37.9987 48.2707 39.1834 48.25 40.3438C49.9691 40.2493 50.2942 40.5955 50.388 42.4987C49.9216 42.4761 49.4134 42.4806 48.9432 42.4748L43.1566 42.4792C43.1561 42.449 43.1558 42.4187 43.1558 42.3885C43.1552 40.5059 43.7105 40.3118 45.2282 40.3451C45.1888 38.7564 45.044 36.295 45.5829 34.9002C46.1544 33.4211 46.9189 33.0928 48.1241 32.5508Z" fill="#c9a84c"/>
<path d="M59.2923 30.0248C59.6806 30.0008 60.0439 29.9907 60.4009 30.1913C60.7794 30.404 61.0073 30.7721 61.1326 31.2223C61.4306 32.2929 59.4705 39.0969 58.9215 40.2186C58.6546 40.7638 58.1402 40.8896 57.6491 41.0427C56.3154 40.9427 55.3899 39.6644 55.9426 38.185C56.8405 35.7812 57.5155 33.2698 58.4543 30.8967C58.5981 30.5331 58.9959 30.2103 59.2923 30.0248Z" fill="#c9a84c"/>
<path d="M63.4089 30.9301C63.9055 30.8688 65.0306 31.1515 65.1311 31.7488C65.3482 33.4863 64.5631 35.4569 64.2143 37.1542C63.8623 38.8669 63.9762 40.1601 62.3667 40.8524C61.7823 40.8607 61.2029 40.756 60.828 40.1974C60.6445 39.9316 60.4329 39.2675 60.4865 38.9357C60.8999 36.3752 61.794 33.9028 62.5262 31.4425C62.6173 31.1362 63.1512 31.009 63.4089 30.9301Z" fill="#c9a84c"/>
<path d="M29.973 83.5649C31.6768 83.7831 32.5179 84.1577 33.8838 85.4484C34.9443 86.4505 35.8009 88.5951 35.8985 90.1425C33.1891 90.0922 29.9248 90.7874 29.9035 86.3792C29.8992 85.4786 29.8822 84.4533 29.973 83.5649Z" fill="#c9a84c"/>
<path d="M89.3697 83.611L89.6727 83.5835C89.8807 83.847 89.8833 84.3564 89.8904 84.7158C89.997 90.0789 88.6551 90.1488 84.5737 90.1344C84.3383 90.142 84.2204 90.1631 83.9986 90.0571L83.9507 89.9132C84.27 86.626 86.5052 84.0869 89.3697 83.611Z" fill="#c9a84c"/>
<path d="M33.5431 43.7545C34.3154 43.7342 35.0963 43.7576 35.8693 43.7724C35.4197 46.7084 34.3238 48.7865 31.7662 49.8053C31.3075 50.0215 30.4746 50.2261 29.9494 50.3936C29.9382 50.2211 29.9293 50.0485 29.9229 49.8758C29.8505 47.849 29.6224 45.377 31.3899 44.2272C32.13 43.7457 32.7277 43.7785 33.5431 43.7545Z" fill="#c9a84c"/>
<path d="M83.9736 43.8014C84.6673 43.7428 85.3978 43.7685 86.091 43.7476C90.2157 43.623 89.8954 46.8585 89.857 50.3265C89.0346 50.4074 86.984 49.475 86.2873 48.7687C84.8826 47.3444 84.1616 45.8999 83.9736 43.8014Z" fill="#c9a84c"/>
<path d="M55.2796 30.4308C55.7544 30.3986 56.1523 30.5039 56.5376 30.8407C56.7683 31.0425 56.9624 31.3669 56.9933 31.7014C57.0703 32.5351 55.028 38.2098 54.5553 38.8656C54.3229 39.188 53.9882 39.2217 53.6467 39.2684C53.3539 39.2637 52.9655 39.2171 52.666 39.1913C51.8532 38.3731 51.6349 37.77 52.036 36.6317C52.4853 35.3471 53.0394 34.122 53.6339 32.9169C54.2134 31.7418 54.1203 31.0137 55.2796 30.4308Z" fill="#c9a84c"/>
<path d="M66.8255 32.976C69.2302 32.7596 68.6293 34.7107 68.3646 36.5447C68.176 37.8516 68.0021 39.3511 66.831 39.9406C65.8001 39.9936 64.8214 39.4148 65.0495 38.1526C65.285 36.8501 65.664 35.3295 65.9043 34.0009C66.0182 33.3715 66.3673 33.2154 66.8255 32.976Z" fill="#c9a84c"/>
</svg>
