<svg width="120" height="102" viewBox="0 0 120 102" fill="none" xmlns="http://www.w3.org/2000/svg">
<path d="M21.3792 15.5939C23.8083 15.5044 24.2116 16.6186 25.7866 18.1583L31.2524 23.514C33.4157 25.6081 35.4357 27.7584 38.6427 28.1662C39.631 28.2919 41.322 27.8983 42.3546 27.7535C43.6653 27.5829 44.9784 27.4306 46.2934 27.2966C49.5708 26.9514 52.7465 26.6036 56.0059 26.092C58.8488 25.6458 61.9887 25.6037 64.8271 25.1155C68.9758 24.3893 73.1703 24.024 77.3589 23.5822C84.4818 22.8308 91.2692 20.6703 97.8476 24.7838C96.9092 24.7983 93.2121 25.2225 92.6306 25.7598C92.4254 25.9494 92.3438 26.2681 92.3555 26.5405C92.3663 26.7934 92.4436 27.0252 92.6428 27.1924C93.6396 28.0297 98.0558 26.6674 99.506 26.5948C100.683 26.5357 102.042 27.0703 102.905 27.8652C103.351 28.2765 103.72 28.8051 103.739 29.4314C103.758 30.0489 103.428 30.6143 103.016 31.0498C99.5347 34.7253 85.2318 35.4443 80.144 35.936C78.4742 36.0974 76.7892 36.5427 75.1263 36.605C76.2509 35.7639 78.1499 34.9165 78.7948 33.5794C79.0067 33.1401 78.5728 32.7359 78.1398 32.6297C77.5218 32.6554 73.8614 35.5537 73.0285 36.1509L62.0187 44.3232C59.7437 45.9978 56.6425 48.5666 54.1289 49.6306C53.2046 50.0218 48.503 50.5713 47.5837 50.1425C47.2694 49.5415 50.2187 46.0834 50.7101 45.4526L56.4208 38.1014C57.1247 37.1987 57.8914 36.273 58.5161 35.3124C58.7579 34.9406 58.7941 34.5897 58.5506 34.1961C57.3133 33.5588 54.7986 37.5839 54.0728 38.5642C51.5588 39.0065 44.7123 38.6106 42.1971 38.2681C40.5839 38.0485 29.3586 36.2016 28.9532 35.6581C29.2604 34.8934 32.3157 33.9747 31.3931 32.8178C30.6487 31.8846 28.8502 33.8623 28.1124 34.1848C27.8151 34.3149 27.2113 34.8594 26.8607 35.0282C25.1136 36.0591 23.5077 37.4943 21.6415 38.2866C20.8228 38.6153 18.0674 38.6213 17.1606 38.5844C17.8853 37.4529 19.9793 35.3836 21.0024 34.3374C19.9506 33.9997 18.1871 33.5606 19.1136 31.854C19.6281 30.9061 21.8162 30.6667 22.8702 30.4599C22.7734 30.1367 22.6328 29.648 22.4981 29.3458C21.2119 26.4584 20.1232 23.4911 18.9487 20.5582C18.3212 18.9911 17.6507 17.7628 17.3052 16.072C18.2172 15.8209 20.3714 15.6785 21.3792 15.5939Z" fill="#c9a84c"/>
<path d="M102.062 64.8107C102.491 64.7799 103.065 64.6702 103.397 64.9599C103.866 65.3702 103.487 66.2723 103.207 66.7064C102.416 67.9323 101.59 69.1571 100.831 70.4073L97.2617 76.2141C96.4437 77.5647 95.6406 79.2165 94.5803 80.3803C94.0076 81.0088 93.1381 81.4173 92.4028 81.8238C91.8101 82.1517 91.1989 82.5591 90.5197 82.6657C88.5863 82.9695 86.6117 81.0299 84.8637 80.3671C83.9371 80.0157 82.9289 79.8823 81.9417 79.8896C78.1302 79.9175 76.4236 82.6327 74.0935 82.6989C72.4753 82.7449 70.7294 81.0105 69.2399 80.4097C68.3108 80.035 67.3155 79.8989 66.3185 79.8962C62.1822 79.8848 60.8751 82.526 58.3578 82.6757C56.4037 82.7919 54.0841 79.9349 50.7279 79.8931C48.1128 79.8606 46.9034 80.59 44.7203 81.8621C44.0864 82.2314 43.4647 82.5796 42.7244 82.6824C40.7356 82.9588 38.1604 79.9435 34.7977 79.8935C30.3497 79.8272 29.195 82.5799 26.3479 82.7302C25.0305 82.5429 22.4219 80.875 21.3218 80.054C20.53 78.362 19.8547 76.1922 19.1472 74.4375C18.4637 72.7425 17.3931 70.709 17.4483 68.9016C17.4593 68.544 18.4948 68.4833 18.7391 68.4753C20.4835 68.5645 22.5533 68.3673 24.2578 68.4879C26.6361 68.6561 30.478 68.1308 32.6756 68.6357C34.0922 70.2281 34.2756 71.1168 35.959 72.5501C37.662 72.8886 42.8752 72.3202 44.768 72.2172L59.5896 71.4988C63.1711 71.3749 66.7513 71.2149 70.3296 71.0191C71.3775 70.962 73.6211 70.8831 74.5768 70.6995C76.2553 70.3769 77.8167 66.9847 79.6444 66.7442C82.1235 66.4181 84.7469 66.3097 87.2472 66.1L102.062 64.8107Z" fill="#c9a84c"/>
<path d="M42.5399 54.8492C42.8326 54.8122 43.5252 54.7368 43.6413 55.1069C44.2627 57.087 44.3434 59.2442 45.1435 61.1704C46.7979 61.1154 48.6944 61.0612 50.3555 61.1802C50.9961 61.2261 50.9044 62.1036 50.9466 62.6503C51.122 64.9209 50.6706 68.075 51.061 70.2642C50.0745 70.156 48.5389 70.2433 47.5125 70.2863C45.4338 70.3645 43.3567 70.4794 41.2821 70.6312C39.8305 70.7437 38.0326 70.9701 36.618 70.9372C36.1467 70.3905 35.6293 69.4485 35.1935 68.8275C34.6898 68.1099 34.2509 67.6293 33.6645 66.9822C32.4454 66.6388 31.4552 66.7126 30.199 66.7154C28.3868 66.7165 26.3845 66.7594 24.5889 66.6785C24.7898 65.7513 25.551 62.1777 26.0966 61.5689C26.7081 60.8866 29.6191 61.1149 30.6358 61.1301C30.3765 59.8695 30.0366 57.9137 29.9615 56.6601C29.9331 56.1871 34 55.4994 34.6052 55.7906C35.2996 56.5511 35.8377 60.0019 36.0209 61.1447C37.1899 61.1098 38.3597 61.1054 39.5289 61.1317C39.458 60.8375 39.3952 60.5415 39.3406 60.2439C39.1826 59.3599 38.5557 56.0191 38.966 55.433C39.7167 55.0553 41.6313 54.9414 42.5399 54.8492ZM48.5717 66.1357C48.8257 65.9934 48.9387 65.9556 48.9937 65.659C49.0559 65.3232 49.182 63.3375 48.9446 63.2052C48.2211 62.8019 43.2029 63.0248 42.5613 63.0437C42.3667 63.0835 42.1061 63.0846 42.0169 63.2749C41.7652 63.8123 41.9033 65.4738 42.1424 65.9808C42.8326 66.2707 47.5281 66.1411 48.5717 66.1357Z" fill="#c9a84c"/>
<path d="M18.0552 81.7839C20.8006 81.6394 21.8014 82.6716 24.0777 83.8976C27.8337 85.9207 29.6409 82.8571 32.7051 81.952C35.5881 81.1006 37.4873 82.4836 39.8056 83.8123C43.6243 86.0009 45.4443 82.9147 48.5654 81.9636C51.4256 81.092 53.4365 82.497 55.7511 83.8447C59.4961 86.0252 61.456 82.8456 64.4914 81.9538C67.3624 81.1103 69.3242 82.5142 71.6272 83.8716C75.2491 86.006 77.3017 82.8065 80.3125 81.9473C82.9838 81.1437 85.2042 82.5089 87.3601 83.8187C91.0046 86.0331 92.8864 83.0045 95.8909 81.9991C97.9342 81.3153 100.541 82.0255 102.288 83.1374C103.285 83.7712 104.04 84.2561 103.251 85.4961C101.893 86.1303 100.377 84.1687 98.6524 84.0707C94.161 83.8154 93.8921 87.3154 88.6437 86.5496C85.4377 86.0817 85.024 84.1304 82.0082 84.0248C80.03 83.9553 78.7517 85.2809 77.091 86.058C75.9245 86.6038 75.0023 86.5586 73.8505 86.6436C70.5977 86.884 68.6253 83.5835 65.7227 84.0457C62.3348 84.5852 62.1921 86.6749 58.1707 86.6424C54.242 86.6105 54.2808 84.6891 50.9704 84.0712C48.8512 83.6756 47.1146 85.2311 45.371 86.0806C44.3484 86.5789 43.4049 86.5564 42.3771 86.6492C39.0556 86.9491 37.0222 83.772 34.1701 84.0417C30.6968 84.3699 30.3819 86.8694 26.1197 86.6383C21.9264 86.4109 22.1427 84.1037 18.0175 83.9775C17.2987 83.2924 16.9979 82.3251 18.0552 81.7839Z" fill="#c9a84c"/>
<path d="M50.2622 15.4929C51.0456 15.3522 53.7633 15.364 54.4133 15.6696C58.9298 17.7935 63.4103 20.8639 67.7965 23.2109C66.9987 23.2639 66.1709 23.3719 65.3738 23.4638C62.1997 23.7258 58.7708 24.2866 55.6389 24.4733C54.8854 23.7399 48.9968 16.5194 48.9058 15.9834C48.8832 15.8499 48.9508 15.8104 49.0256 15.707C49.3657 15.5099 49.8584 15.5194 50.2622 15.4929Z" fill="#c9a84c"/>
<path d="M73.846 38.6396C74.4616 38.6092 76.3768 38.4435 76.7379 38.7887C77.4666 39.5436 77.7102 43.6069 76.9114 44.1534C75.3568 45.2171 71.1824 45.0019 69.3211 44.8962C67.8764 44.7622 66.7329 44.2954 65.229 44.152C67.4658 42.433 69.9622 40.3789 72.3758 38.9175C72.7707 38.6784 73.3721 38.6705 73.846 38.6396Z" fill="#c9a84c"/>
<path d="M33.0723 47.9067C33.4792 48.0164 33.542 48.0587 33.837 48.4071C35.7571 50.6756 38.9368 48.1453 40.8443 50.4627C41.4396 51.1858 41.8528 52.4898 41.5702 53.3957C40.9094 53.1284 40.634 52.2868 39.7731 51.9836C38.3487 51.4818 36.8149 51.9836 35.3536 51.6437C34.1125 51.3551 33.7229 50.6203 33.0998 49.6426L33.0723 47.9067Z" fill="#c9a84c"/>
<path d="M23.9983 49.0781C24.4549 49.2508 24.6678 50.2056 25.717 50.4636C27.5407 50.912 29.8365 49.987 31.4069 51.2189C32.3888 51.9891 32.4553 53.2703 32.57 54.4086C32.1806 54.2093 31.46 53.6063 30.9693 53.3252C29.7779 52.5316 28.4665 53.0825 27.1584 52.986C24.4573 52.7868 23.805 51.5394 23.9983 49.0781Z" fill="#c9a84c"/>
</svg>
